<svg width="17" height="17" viewBox="0 0 17 17" fill="none" xmlns="http://www.w3.org/2000/svg">
<path fill-rule="evenodd" clip-rule="evenodd" d="M16.2923 16.2832H10.2482C9.90317 16.2832 9.62317 16.0032 9.62317 15.6582C9.62317 15.3132 9.90317 15.0332 10.2482 15.0332H16.2923C16.6373 15.0332 16.9173 15.3132 16.9173 15.6582C16.9173 16.0032 16.6373 16.2832 16.2923 16.2832Z" fill="#949D9E"/>
<mask id="mask0_36236_1565" style="mask-type:luminance" maskUnits="userSpaceOnUse" x="0" y="0" width="15" height="17">
<path fill-rule="evenodd" clip-rule="evenodd" d="M0.666992 0.5H14.9841V16.283H0.666992V0.5Z" fill="white"/>
</mask>
<g mask="url(#mask0_36236_1565)">
<path fill-rule="evenodd" clip-rule="evenodd" d="M9.92555 2.18054L2.07972 11.993C1.93722 12.1714 1.88472 12.4014 1.93722 12.6222L2.50472 15.0264L5.03722 14.9947C5.27805 14.9922 5.50055 14.8847 5.64805 14.7014C8.32889 11.3472 13.4397 4.9522 13.5847 4.7647C13.7214 4.54304 13.7747 4.2297 13.7031 3.92804C13.6297 3.61887 13.4372 3.35637 13.1597 3.18887C13.1006 3.14804 11.6964 2.05804 11.6531 2.02387C11.1247 1.60054 10.3539 1.67387 9.92555 2.18054ZM2.01139 16.283C1.72222 16.283 1.47055 16.0847 1.40305 15.8022L0.720554 12.9097C0.579721 12.3105 0.719721 11.6922 1.10389 11.2122L8.95389 1.39387C8.95722 1.39054 8.95972 1.38637 8.96305 1.38304C9.82389 0.353869 11.3806 0.202202 12.4306 1.0447C12.4722 1.0772 13.8664 2.16054 13.8664 2.16054C14.3731 2.4622 14.7689 3.00137 14.9189 3.6397C15.0681 4.27137 14.9597 4.92304 14.6122 5.47387C14.5864 5.5147 14.5639 5.5497 6.62389 15.483C6.24139 15.9597 5.66805 16.2372 5.05222 16.2447L2.01972 16.283H2.01139Z" fill="#949D9E"/>
</g>
<path fill-rule="evenodd" clip-rule="evenodd" d="M12.5196 7.73747C12.3863 7.73747 12.2529 7.69497 12.1388 7.6083L7.59543 4.1183C7.3221 3.9083 7.27043 3.51664 7.48043 3.24164C7.69126 2.9683 8.08293 2.91747 8.3571 3.12747L12.9013 6.61664C13.1746 6.82664 13.2263 7.21914 13.0154 7.4933C12.8929 7.6533 12.7071 7.73747 12.5196 7.73747Z" fill="#949D9E"/>
</svg>
