<svg width="28" height="28" viewBox="0 0 28 28" fill="none" xmlns="http://www.w3.org/2000/svg">
<path fill-rule="evenodd" clip-rule="evenodd" d="M4.08429 16.085V15.8295C4.12177 15.0737 4.36403 14.3413 4.78608 13.7079C5.48858 12.9471 5.96948 12.0147 6.17833 11.0087C6.17833 10.2311 6.17833 9.44246 6.24624 8.6649C6.59714 4.92153 10.2985 2.33337 13.9546 2.33337H14.0451C17.7012 2.33337 21.4025 4.92153 21.7648 8.6649C21.8327 9.44246 21.7648 10.2311 21.8213 11.0087C22.033 12.0171 22.5134 12.9523 23.2136 13.719C23.6388 14.3468 23.8814 15.0765 23.9154 15.8295V16.0739C23.9406 17.0894 23.5909 18.0797 22.9306 18.862C22.0581 19.7768 20.8741 20.3459 19.6028 20.4615C15.8748 20.8614 12.1135 20.8614 8.38556 20.4615C7.11566 20.3409 5.93338 19.7726 5.05774 18.862C4.40766 18.0791 4.06261 17.0947 4.08429 16.085Z" stroke="#393F42" stroke-width="1.5" stroke-linecap="round" stroke-linejoin="round"/>
<path d="M11.1474 24.3271C11.7299 25.0583 12.5853 25.5314 13.5243 25.6419C14.4632 25.7524 15.4084 25.4911 16.1505 24.9159C16.3787 24.7457 16.5841 24.5479 16.7617 24.3271" stroke="#393F42" stroke-width="1.5" stroke-linecap="round" stroke-linejoin="round"/>
</svg>
